<svg width="109" height="106" viewBox="0 0 109 106" fill="none" xmlns="http://www.w3.org/2000/svg">
<path d="M40.0898 39.0093C42.0601 39.1904 44.6395 39.5264 47.4073 40.149C52.4863 41.2915 57.6943 43.2897 61.1065 46.6086C64.5145 49.9234 66.5657 54.9774 67.7397 59.9066C68.3772 62.5835 68.7228 65.0792 68.9099 66.9904C66.9395 66.809 64.3602 66.4726 61.5924 65.8497C56.5132 64.7067 51.305 62.7082 47.8929 59.39C44.4853 56.0762 42.4341 51.0227 41.2602 46.0936C40.6225 43.4165 40.2769 40.9206 40.0898 39.0093Z" stroke="white" stroke-width="7"/>
<path d="M91.875 53C91.875 72.9289 75.2344 89.25 54.5 89.25C33.7656 89.25 17.125 72.9289 17.125 53C17.125 33.0711 33.7656 16.75 54.5 16.75C75.2344 16.75 91.875 33.0711 91.875 53Z" stroke="white" stroke-width="7"/>
</svg>
